<svg xmlns="http://www.w3.org/2000/svg" viewBox="0 0 1600 480" preserveAspectRatio="xMidYMid slice">
  <defs>
    <linearGradient id="sky" x1="0%" y1="0%" x2="100%" y2="100%">
      <stop offset="0%" stop-color="#2E7CF6"/>
      <stop offset="55%" stop-color="#4FA0F5"/>
      <stop offset="100%" stop-color="#1FC3DC"/>
    </linearGradient>
    <linearGradient id="band" x1="0%" y1="0%" x2="100%" y2="0%">
      <stop offset="0%" stop-color="#ffffff" stop-opacity="0"/>
      <stop offset="50%" stop-color="#ffffff" stop-opacity="0.16"/>
      <stop offset="100%" stop-color="#ffffff" stop-opacity="0"/>
    </linearGradient>
    <radialGradient id="glowA" cx="50%" cy="50%" r="50%">
      <stop offset="0%" stop-color="#B9E7FF" stop-opacity="0.55"/>
      <stop offset="100%" stop-color="#B9E7FF" stop-opacity="0"/>
    </radialGradient>
    <radialGradient id="glowB" cx="50%" cy="50%" r="50%">
      <stop offset="0%" stop-color="#7FF3FF" stop-opacity="0.45"/>
      <stop offset="100%" stop-color="#7FF3FF" stop-opacity="0"/>
    </radialGradient>
  </defs>

  <rect width="1600" height="480" fill="url(#sky)"/>

  <ellipse cx="1280" cy="90" rx="420" ry="240" fill="url(#glowA)"/>
  <ellipse cx="260" cy="380" rx="520" ry="260" fill="url(#glowB)"/>

  <rect x="-200" y="96" width="2000" height="46" fill="url(#band)" transform="rotate(-7 800 120)"/>
  <rect x="-200" y="300" width="2000" height="26" fill="url(#band)" transform="rotate(-7 800 310)"/>

  <circle cx="380" cy="120" r="5" fill="#ffffff" opacity="0.5"/>
  <circle cx="980" cy="70" r="3.5" fill="#ffffff" opacity="0.45"/>
  <circle cx="1420" cy="240" r="4.5" fill="#ffffff" opacity="0.4"/>
  <circle cx="640" cy="60" r="3" fill="#ffffff" opacity="0.5"/>

  <path d="M0,432 C300,392 560,452 840,428 C1120,404 1360,446 1600,420 L1600,480 L0,480 Z"
        fill="#10316B" opacity="0.14"/>
  <path d="M0,456 C340,424 640,470 960,450 C1240,434 1420,462 1600,448 L1600,480 L0,480 Z"
        fill="#0E2B60" opacity="0.16"/>
</svg>
